<svg width="111" height="33" viewBox="0 0 111 33" fill="none" xmlns="http://www.w3.org/2000/svg">
<path d="M3.71484 0.598887C3.71484 0.778208 4.56825 1.45774 5.34133 1.89188C6.27506 2.42041 8.14252 3.19432 9.55817 3.6379C10.512 3.93992 10.6927 4.06261 10.5521 4.27968C10.5019 4.35518 10.2509 4.33631 9.6385 4.19474C7.40959 3.70397 3.17267 2.40153 1.55622 1.73144C0.662647 1.35392 0 1.18404 0 1.33505C0 1.51437 0.471885 2.02401 0.943769 2.35434C1.64658 2.84512 3.57428 3.7134 5.27105 4.28912C6.04414 4.56282 6.81723 4.83652 6.97787 4.91202C7.27907 5.04415 7.27907 5.04415 7.02807 5.04415C6.41562 5.06303 4.39756 4.7327 3.23291 4.42125C0.321283 3.65678 0.100401 3.61903 0.100401 3.86441C0.100401 4.06261 0.833328 4.63832 1.47589 4.94034C2.13854 5.25179 3.36343 5.6765 4.61845 6.03514C5.10037 6.16727 5.71282 6.43153 6.02406 6.62973C6.65659 7.03556 7.67064 7.44139 8.47384 7.62071C8.78509 7.68677 9.03609 7.77172 9.03609 7.80947C9.03609 7.85666 8.75497 7.88497 8.4136 7.88497C7.8112 7.88497 6.3353 8.0171 5.65258 8.12092C5.24093 8.18699 5.22085 8.4135 5.5823 8.81933C5.9839 9.26291 6.81723 9.6593 8.1124 10.0179C8.2128 10.0463 8.20276 10.1029 8.08228 10.2822C7.95176 10.471 7.94172 10.5559 8.03208 10.7164C8.15256 10.9334 8.87545 11.2638 9.66862 11.4714C9.9899 11.5563 10.1405 11.6413 10.1405 11.7545C10.1405 11.8395 10.2409 11.9999 10.3714 12.1132C10.6023 12.3114 11.8072 12.8871 12.008 12.8871C12.0782 12.8871 12.1987 12.9909 12.2891 13.123C12.4798 13.4062 13.0019 13.5477 13.8353 13.5477C14.1766 13.5477 14.4577 13.5855 14.4577 13.6421C14.4577 13.6893 14.528 13.7365 14.6083 13.7365C14.6887 13.7365 14.8493 13.8214 14.9698 13.9347C15.1505 14.1046 15.2509 14.1234 15.6023 14.0763C16.7971 13.8969 16.7971 13.8969 17.018 14.2273C17.269 14.6048 17.6907 14.6803 18.3332 14.4443L18.7649 14.2933L19.1364 14.6331C19.4778 14.9634 19.528 14.9729 19.9698 14.9257C20.7629 14.8219 20.9135 14.8313 21.4557 15.0484C21.8171 15.1994 22.0079 15.3409 22.0882 15.5391C22.1585 15.6807 22.3091 15.8317 22.4296 15.8695C22.54 15.9072 22.7709 16.0299 22.9215 16.1526C23.283 16.4357 23.4336 16.4357 23.6344 16.1432C23.9155 15.7373 24.1464 15.8412 24.3472 16.4452C24.4978 16.9171 24.6585 17.1153 25.4215 17.8326C26.2749 18.6442 26.3151 18.6914 26.2549 19.0123C26.2247 19.2105 26.2649 19.5503 26.3452 19.8145C26.5059 20.3242 26.4757 20.4469 26.0641 20.8055C25.7529 21.0792 25.7428 21.2396 26.0039 21.6172C26.1143 21.7776 26.2047 22.0607 26.2047 22.2589C26.2047 22.7214 26.4255 23.2027 26.7167 23.4009C27.0581 23.618 27.1585 23.5897 27.1785 23.2405C27.2087 22.8535 27.5199 22.6081 28.0119 22.6081C28.5038 22.6081 28.7448 22.863 28.7548 23.3821L28.7649 23.7785L27.8111 24.3353C27.289 24.6279 26.1043 25.2319 25.1806 25.6566C24.036 26.1851 23.5039 26.4777 23.5039 26.591C23.4938 26.808 23.6545 26.8835 23.8954 26.7608C24.0561 26.6853 24.1364 26.7042 24.3071 26.8647C24.5179 27.0629 24.9998 27.0817 25.4416 26.9024C25.6324 26.8269 25.6324 26.8269 25.4717 27.044C25.3814 27.1761 25.3011 27.3743 25.3011 27.4876C25.3011 27.6669 25.3513 27.7046 25.5922 27.7046C25.8031 27.7046 25.8934 27.7613 25.9336 27.9028C25.9838 28.0822 26.044 28.101 26.3553 28.0444C26.5561 28.0066 26.7769 27.9595 26.8472 27.9311C26.9175 27.9028 27.0279 27.9972 27.0882 28.1293C27.1785 28.3087 27.279 28.3653 27.53 28.3653C27.7107 28.3653 27.9516 28.4314 28.0621 28.5163C28.2026 28.6107 28.3733 28.639 28.6444 28.6012C28.9958 28.5446 29.0159 28.554 29.0159 28.7806C29.0159 29.0448 29.3472 29.3091 29.6886 29.3091C29.8091 29.3091 29.9396 29.3468 29.9697 29.4035C29.9998 29.4507 30.1404 29.4978 30.2809 29.4978C30.6424 29.4978 30.5821 29.6205 29.9597 30.0641C28.8653 30.8663 28.7749 31.1778 29.4376 31.9423C29.6685 32.2065 29.9295 32.4425 30.0299 32.4708C30.2508 32.5369 30.8131 32.282 30.8934 32.0838C30.9737 31.8951 30.8432 31.8007 30.7026 31.9328C30.552 32.0744 30.05 32.0838 29.9697 31.9517C29.8392 31.7535 30.6323 30.8192 30.9335 30.8192C31.0339 30.8192 31.2046 30.9702 31.3251 31.1495C31.4456 31.3288 31.5862 31.4798 31.6364 31.4798C31.8171 31.4798 31.8472 31.2061 31.6966 30.9135C31.546 30.6304 31.546 30.6304 31.807 30.6304C32.2789 30.6304 32.3994 30.7625 32.2588 31.1117C32.0982 31.5176 32.1584 31.5553 32.4697 31.2627C32.801 30.9513 32.801 30.7059 32.4697 30.2906L32.2086 29.9697H32.791C33.1223 29.9697 33.4536 29.9225 33.5339 29.8754C33.6444 29.8093 33.6946 29.8376 33.7347 29.9981C33.7649 30.1113 33.9255 30.2718 34.0861 30.3473C34.2367 30.4228 34.4576 30.5643 34.558 30.6587C34.7889 30.8663 35.0801 30.8758 34.9998 30.6681C34.9496 30.536 34.9897 30.5266 35.311 30.5738C36.1243 30.6965 36.0942 30.7059 36.1243 30.3001C36.1444 30.0924 36.2146 29.8659 36.2749 29.7904C36.3753 29.6866 36.4154 29.7621 36.5058 30.2151L36.6162 30.772L36.7568 30.4699C36.8974 30.1962 36.9174 30.1868 37.1484 30.3095C37.2889 30.3756 37.55 30.4322 37.7307 30.4416C38.0319 30.4416 38.052 30.4605 37.9516 30.6304C37.8913 30.7342 37.7006 30.8852 37.5199 30.9513L37.1986 31.0834L37.4998 31.0929C37.9014 31.1023 38.4335 30.7908 38.5841 30.4605C38.6945 30.2057 38.7146 30.1962 39.0058 30.3095C39.1765 30.3756 39.548 30.4322 39.8291 30.4416C40.311 30.4416 40.3612 30.4228 40.4214 30.2057C40.4516 30.0736 40.552 29.9697 40.6524 29.9697C40.7427 29.9697 40.9837 29.9225 41.1945 29.8659C41.4656 29.7999 41.566 29.7244 41.566 29.5828C41.566 29.4318 41.6263 29.4035 41.9074 29.4223C42.0981 29.4318 42.319 29.394 42.3993 29.328C42.5098 29.2336 42.57 29.243 42.6704 29.3563C42.8511 29.5545 43.1724 29.5356 43.1724 29.328C43.1724 29.2336 43.0118 28.9788 42.811 28.7617C42.6202 28.5446 42.4997 28.3653 42.56 28.3653C42.6102 28.3653 42.6905 28.403 42.7206 28.4597C42.7909 28.5635 43.4636 28.5918 43.7146 28.4974C44.1162 28.3559 43.8552 28.101 42.6303 27.4404C40.9435 26.5438 37.5801 24.5429 36.6464 23.8917C36.054 23.4764 35.813 23.2311 35.5219 22.7403C35.0901 22.0324 35.06 21.8248 35.3512 21.636C35.4616 21.5605 35.6223 21.334 35.6926 21.1264C35.803 20.8338 35.8733 20.7772 36.064 20.7961C36.1946 20.8149 36.4154 20.8244 36.566 20.8244C36.7066 20.8244 36.8873 20.8904 36.9576 20.9659C37.058 21.0886 37.0982 21.0886 37.2588 20.9471C37.5399 20.7111 37.7608 20.7961 38.0219 21.268C38.0319 21.2868 38.1725 21.2302 38.3331 21.1358C39.0259 20.7583 38.9255 20.1826 38.052 19.4842C37.2186 18.8235 37.0881 18.3988 37.8713 18.9085C38.1122 19.0595 38.6243 19.3332 39.0158 19.5219C39.3974 19.7013 39.7789 19.9278 39.8592 20.0127C39.9295 20.0977 40.1303 20.2298 40.2809 20.3053C40.6323 20.4752 40.9034 20.3336 40.803 20.041C40.7628 19.9183 40.813 19.7956 40.9536 19.673C41.2046 19.4559 41.2347 18.9179 41.0138 18.7386C40.7026 18.4932 40.8431 18.38 41.5158 18.3422C41.8773 18.3233 42.2186 18.2573 42.2889 18.1912C42.4596 18.0308 42.5299 16.7755 42.3793 16.6339C42.1684 16.4357 42.2487 16.1054 42.5299 16.0393C42.7809 15.9827 42.7909 15.9544 42.7307 15.558C42.6704 15.1616 42.6905 15.1333 43.0319 14.9445C43.3833 14.7464 43.3933 14.7275 43.3532 14.2839L43.303 13.8309H43.6744C44.2367 13.8309 44.4174 13.6515 44.3973 13.1419C44.3772 12.7833 44.4074 12.6889 44.6383 12.519C44.9596 12.283 45.2005 12.2642 45.5319 12.4718C45.7829 12.6228 45.7929 12.6134 46.2748 12.1981C46.7266 11.7923 46.7768 11.7734 47.2186 11.8206C47.58 11.8583 47.7407 11.83 47.9716 11.679C48.1322 11.5658 48.4736 11.4336 48.7346 11.377C49.4073 11.2354 49.9696 10.9523 50.5117 10.471C50.7728 10.2539 51.335 9.89525 51.7668 9.69705C52.2788 9.45167 52.7507 9.13078 53.1121 8.79101C53.4836 8.43237 53.8049 8.2153 54.1262 8.12092C54.3872 8.03598 54.7788 7.84722 54.9997 7.69621C55.2205 7.54521 55.6222 7.3187 55.8932 7.18656C56.1744 7.06387 56.4655 6.8468 56.5659 6.71467C56.6864 6.52591 56.8169 6.46928 57.078 6.46928C57.8711 6.46928 59.347 5.6765 59.2065 5.31785C59.1563 5.17628 59.1161 5.18572 58.2426 5.38392C57.8912 5.46886 57.59 5.51605 57.5699 5.49717C57.5398 5.4783 57.9213 5.33673 58.4033 5.19516C59.4474 4.87427 61.6061 3.88329 61.6864 3.67565C61.7567 3.49633 61.5257 3.41139 61.084 3.47746C60.6623 3.54352 60.7125 3.43027 61.2446 3.15657C62.0077 2.75074 61.8571 2.39209 61.0639 2.7413C60.7828 2.86399 60.5418 2.93006 60.5418 2.88287C60.5418 2.82624 60.582 2.78849 60.6322 2.78849C60.7928 2.78849 61.2446 2.28828 61.2446 2.11839C61.2446 1.83526 60.9233 1.90132 60.2707 2.30715C59.9193 2.53366 59.347 2.77905 58.835 2.91118C57.9113 3.166 56.5458 3.40195 56.4655 3.32645C56.4354 3.29814 56.6262 3.21319 56.8872 3.12825C57.5298 2.92062 58.1121 2.59029 58.5237 2.18446C58.8149 1.90132 58.845 1.84469 58.6944 1.78807C58.594 1.75031 58.1723 1.85413 57.7005 2.03345C55.2406 2.94893 50.3511 3.75116 46.2347 3.92104C45.08 3.96823 43.9054 4.06261 43.6242 4.11924C43.3532 4.17586 42.6202 4.21362 42.0078 4.21362C40.3712 4.1853 39.3873 4.50619 36.7468 5.93132C36.1644 6.24277 35.5922 6.58254 35.4717 6.68635C35.06 7.03556 34.6584 8.24361 34.0359 11.0844C33.795 12.1981 33.4135 13.5289 33.0821 14.4538L32.5299 15.9827L31.797 16.6906C30.6825 17.7665 29.9797 18.0213 29.5079 17.5494C29.3071 17.3418 29.2569 17.1813 29.2067 16.5112C29.1665 15.8883 29.1163 15.6807 28.9456 15.5108C28.6645 15.2371 27.8512 13.6044 27.7709 13.1608C27.7408 12.9815 27.6002 12.6794 27.4597 12.5096C27.3191 12.3302 27.2087 12.1132 27.2087 12.0188C27.2087 11.7923 26.9677 11.3581 26.7569 11.1882C26.6765 11.1222 26.3954 10.6975 26.1545 10.2539C25.5119 9.08359 24.6183 8.00766 23.9758 7.62071C22.2288 6.5731 18.534 5.10078 16.1646 4.50619C14.026 3.96823 6.26502 1.42942 4.82929 0.806521C4.2068 0.532821 3.71484 0.438442 3.71484 0.598887Z" fill="black"/>
<path d="M80.8047 18.5469C80.987 18.5924 81.1191 18.6562 81.2012 18.7383C81.265 18.8021 81.2969 18.875 81.2969 18.957C81.151 19.1576 81.0645 19.2897 81.0371 19.3535C81.0098 19.4173 80.9505 19.4674 80.8594 19.5039C80.7409 19.6862 80.6133 19.8594 80.4766 20.0234C80.349 20.1784 80.2077 20.3288 80.0527 20.4746C79.7702 20.748 79.4922 21.0625 79.2188 21.418C79.1003 21.5365 79.0182 21.6276 78.9727 21.6914C78.9271 21.7552 78.8451 21.8464 78.7266 21.9648C78.5078 22.1198 78.3255 22.2793 78.1797 22.4434C78.0977 22.5345 78.0111 22.6211 77.9199 22.7031C77.8379 22.776 77.7513 22.849 77.6602 22.9219C77.6146 22.9583 77.569 22.9948 77.5234 23.0312C77.487 23.0586 77.446 23.0905 77.4004 23.127C77.3639 23.1634 77.3229 23.1999 77.2773 23.2363C77.2318 23.2728 77.1862 23.3138 77.1406 23.3594C77.0677 23.4323 76.9857 23.5052 76.8945 23.5781C76.8581 23.6055 76.8171 23.6374 76.7715 23.6738C76.735 23.7012 76.694 23.7331 76.6484 23.7695C76.5391 23.8971 76.4297 24.0247 76.3203 24.1523C76.2109 24.2799 76.1016 24.4167 75.9922 24.5625C75.8008 24.6536 75.6185 24.763 75.4453 24.8906C75.2812 25.0091 75.0898 25.1185 74.8711 25.2188C74.7799 25.2734 74.6934 25.36 74.6113 25.4785C74.5384 25.5879 74.4336 25.6654 74.2969 25.7109C74.151 25.7656 73.9961 25.7793 73.832 25.752C73.668 25.7246 73.5312 25.6836 73.4219 25.6289C73.3034 25.5469 73.2305 25.5013 73.2031 25.4922C73.1302 25.474 73.0846 25.4648 73.0664 25.4648C72.8932 25.2188 72.7747 24.959 72.7109 24.6855C72.6745 24.5397 72.6335 24.3939 72.5879 24.248C72.5514 24.1022 72.5104 23.9518 72.4648 23.7969C72.4284 23.7057 72.401 23.61 72.3828 23.5098C72.3646 23.4095 72.3464 23.2956 72.3281 23.168L72.2871 22.9492C72.278 22.9128 72.2689 22.8763 72.2598 22.8398C72.2507 22.7943 72.237 22.7487 72.2188 22.7031C72.1823 22.612 72.1458 22.5163 72.1094 22.416C72.0729 22.3158 72.0456 22.2109 72.0273 22.1016C71.9909 21.8828 71.9772 21.6686 71.9863 21.459C71.9954 21.2493 72.0182 21.0443 72.0547 20.8438C72.1641 20.2422 72.3236 19.668 72.5332 19.1211C72.7428 18.5742 72.957 18.0547 73.1758 17.5625C73.2214 17.3346 73.2715 17.1615 73.3262 17.043C73.3809 16.9245 73.4401 16.7604 73.5039 16.5508C73.5859 16.4505 73.6497 16.3047 73.6953 16.1133C73.7135 16.0312 73.7318 15.9492 73.75 15.8672C73.7773 15.7852 73.8047 15.7031 73.832 15.6211C73.8594 15.5482 73.8913 15.4753 73.9277 15.4023C73.9642 15.3203 74.0007 15.2337 74.0371 15.1426C74.11 14.9785 74.1693 14.8099 74.2148 14.6367C74.2786 14.4271 74.3288 14.2448 74.3652 14.0898C74.3835 13.9987 74.4062 13.9121 74.4336 13.8301C74.4701 13.748 74.5065 13.6706 74.543 13.5977C74.6159 13.4062 74.6842 13.2194 74.748 13.0371C74.821 12.8548 74.8893 12.6771 74.9531 12.5039C75.0169 12.3307 75.0807 12.1576 75.1445 11.9844C75.2174 11.8112 75.2904 11.638 75.3633 11.4648C75.3815 11.4102 75.3997 11.3555 75.418 11.3008C75.4362 11.2461 75.4544 11.1914 75.4727 11.1367C75.5091 11.0365 75.5638 10.9362 75.6367 10.8359C75.6823 10.7083 75.7279 10.6126 75.7734 10.5488C75.8464 10.4395 75.901 10.3529 75.9375 10.2891C75.9375 10.1888 75.9694 10.1204 76.0332 10.084C76.0788 10.0566 76.1289 9.9974 76.1836 9.90625C76.2839 9.7513 76.3522 9.60547 76.3887 9.46875C76.4251 9.33203 76.4935 9.1862 76.5938 9.03125L76.9219 8.62109C76.9401 8.58464 76.9583 8.54818 76.9766 8.51172C76.9948 8.47526 77.013 8.4388 77.0312 8.40234C77.0768 8.32943 77.1315 8.26562 77.1953 8.21094C77.4049 7.88281 77.6237 7.55469 77.8516 7.22656L78.5898 6.1875C78.7539 5.93229 78.9362 5.69076 79.1367 5.46289C79.3372 5.23503 79.5469 5.01172 79.7656 4.79297C79.8385 4.70182 79.9251 4.60156 80.0254 4.49219C80.1257 4.38281 80.2305 4.31901 80.3398 4.30078C80.513 4.28255 80.6953 4.30078 80.8867 4.35547C80.9414 4.44661 80.9915 4.54232 81.0371 4.64258C81.0827 4.74284 81.1237 4.85677 81.1602 4.98438C81.1966 5.54948 81.1784 6.09635 81.1055 6.625C81.0326 7.15365 80.9505 7.67318 80.8594 8.18359C80.8411 8.30208 80.8366 8.38867 80.8457 8.44336C80.8548 8.49805 80.8503 8.58464 80.832 8.70312C80.7956 8.8125 80.75 8.95378 80.6953 9.12695C80.6406 9.30013 80.5951 9.45964 80.5586 9.60547C80.5586 9.85156 80.5039 10.0794 80.3945 10.2891C80.2852 10.4896 80.2122 10.6901 80.1758 10.8906C80.1211 10.9271 80.0892 10.9863 80.0801 11.0684C80.071 11.1504 80.0391 11.2096 79.9844 11.2461C79.9388 11.4557 79.8796 11.638 79.8066 11.793C79.7246 11.957 79.6562 12.1211 79.6016 12.2852C79.4648 12.4766 79.3281 12.6634 79.1914 12.8457C79.0547 13.028 78.9134 13.2103 78.7676 13.3926C78.6217 13.5658 78.4805 13.748 78.3438 13.9395C78.2161 14.1217 78.0885 14.3086 77.9609 14.5C77.6419 14.9831 77.3092 15.4388 76.9629 15.8672C76.6165 16.2956 76.2839 16.7513 75.9648 17.2344C75.7096 17.4622 75.5091 17.6901 75.3633 17.918C75.2083 18.1641 74.9987 18.3919 74.7344 18.6016C74.6888 18.7839 74.6432 18.9753 74.5977 19.1758C74.5612 19.3763 74.5202 19.5814 74.4746 19.791C74.4382 20.0007 74.3971 20.2148 74.3516 20.4336C74.306 20.6523 74.2604 20.8711 74.2148 21.0898C74.2057 21.2083 74.1784 21.3314 74.1328 21.459C74.1146 21.5228 74.0964 21.5866 74.0781 21.6504C74.0599 21.7051 74.0417 21.7643 74.0234 21.8281C73.987 21.9557 73.9779 22.1107 73.9961 22.293C74.0052 22.457 73.9779 22.612 73.9141 22.7578C73.9414 22.8307 73.9642 22.9355 73.9824 23.0723C73.9915 23.1908 74.0234 23.2956 74.0781 23.3867C74.1784 23.5508 74.2878 23.6328 74.4062 23.6328C74.543 23.5599 74.6159 23.528 74.625 23.5371C74.6341 23.5462 74.6615 23.5417 74.707 23.5234C74.7982 23.4688 74.8893 23.3958 74.9805 23.3047C75.0716 23.2135 75.1536 23.1315 75.2266 23.0586C75.3268 23.013 75.3952 22.972 75.4316 22.9355C75.459 22.9082 75.5091 22.8672 75.582 22.8125C75.6367 22.776 75.6868 22.7487 75.7324 22.7305C75.778 22.7122 75.819 22.6849 75.8555 22.6484C76.1198 22.375 76.3659 22.1699 76.5938 22.0332C76.8307 21.8965 77.0221 21.7279 77.168 21.5273L77.6602 21.2266C77.7604 21.1719 77.8561 21.0944 77.9473 20.9941C78.0293 20.8939 78.1341 20.8164 78.2617 20.7617C78.3164 20.6888 78.3529 20.6432 78.3711 20.625C78.3893 20.6068 78.4258 20.5612 78.4805 20.4883C78.5898 20.4154 78.6992 20.3424 78.8086 20.2695C78.918 20.1966 79.0228 20.1237 79.123 20.0508C79.2233 19.9779 79.3281 19.9049 79.4375 19.832C79.556 19.7591 79.6745 19.6862 79.793 19.6133C79.8294 19.5221 79.8887 19.4492 79.9707 19.3945C80.0527 19.3398 80.1211 19.2852 80.1758 19.2305C80.2305 19.1758 80.276 19.1165 80.3125 19.0527C80.3581 18.9798 80.4219 18.9388 80.5039 18.9297C80.513 18.8477 80.554 18.7839 80.627 18.7383C80.6999 18.6927 80.7591 18.6289 80.8047 18.5469ZM79.3281 8.34766H79.3008C79.1367 8.38411 79.0228 8.46615 78.959 8.59375C78.8952 8.72135 78.8359 8.86719 78.7812 9.03125C78.7448 9.10417 78.7083 9.16797 78.6719 9.22266C78.6445 9.27734 78.6217 9.32292 78.6035 9.35938C78.5671 9.42318 78.5534 9.53255 78.5625 9.6875C78.2799 10.1523 78.0111 10.6309 77.7559 11.123C77.5007 11.6061 77.2546 12.1029 77.0176 12.6133C76.7897 13.1237 76.5573 13.6387 76.3203 14.1582C76.0833 14.6686 75.8464 15.1836 75.6094 15.7031C75.9831 15.3294 76.3249 14.8919 76.6348 14.3906C76.7897 14.1354 76.9492 13.8984 77.1133 13.6797C77.2865 13.4609 77.4596 13.2604 77.6328 13.0781C77.7604 12.7682 77.8926 12.4674 78.0293 12.1758C78.1751 11.8841 78.3255 11.6061 78.4805 11.3418C78.7812 10.8314 79.0182 10.2253 79.1914 9.52344C79.1185 9.29557 79.1276 9.09961 79.2188 8.93555C79.3099 8.77148 79.3464 8.57552 79.3281 8.34766ZM85.3711 11.3008L85.6445 11.3828C85.681 11.4284 85.6992 11.4831 85.6992 11.5469C85.6992 11.5924 85.7266 11.638 85.7812 11.6836C85.7448 11.8477 85.7129 12.0163 85.6855 12.1895C85.6582 12.3626 85.6445 12.5312 85.6445 12.6953C85.6445 12.7591 85.6673 12.8229 85.7129 12.8867C85.7585 12.9505 85.7812 13.0052 85.7812 13.0508C85.6901 13.2604 85.6217 13.388 85.5762 13.4336C85.5306 13.4792 85.5078 13.5247 85.5078 13.5703C85.4167 13.6068 85.3483 13.6615 85.3027 13.7344C85.2572 13.8073 85.1797 13.8438 85.0703 13.8438C85.0339 13.8984 84.9928 13.9395 84.9473 13.9668C84.8926 14.0033 84.8607 14.0534 84.8516 14.1172C84.5508 14.2448 84.2227 14.2357 83.8672 14.0898C83.7669 13.9167 83.6393 13.7982 83.4844 13.7344C83.2474 13.388 83.2383 12.9779 83.457 12.5039C83.4935 12.4128 83.5345 12.3171 83.5801 12.2168C83.6257 12.1165 83.6667 12.0482 83.7031 12.0117C83.8945 11.875 84.0404 11.7839 84.1406 11.7383C84.1771 11.7201 84.2135 11.7018 84.25 11.6836C84.2956 11.6562 84.3366 11.6289 84.373 11.6016C84.4368 11.556 84.5326 11.5104 84.6602 11.4648C84.7148 11.4466 84.765 11.4375 84.8105 11.4375C84.8835 11.4375 84.9518 11.4193 85.0156 11.3828C85.0521 11.3737 85.084 11.3646 85.1113 11.3555C85.1478 11.3464 85.1797 11.3372 85.207 11.3281C85.2799 11.3099 85.3346 11.3008 85.3711 11.3008ZM81.2695 23.4141L81.4062 23.4688C81.5703 23.3958 81.7708 23.3685 82.0078 23.3867C82.2539 23.4049 82.4453 23.3685 82.582 23.2773C82.6732 23.2044 82.737 23.1497 82.7734 23.1133C82.8281 23.0586 82.8919 23.0404 82.9648 23.0586C83.2565 22.9492 83.5026 22.8398 83.7031 22.7305C83.9128 22.6211 84.1315 22.5391 84.3594 22.4844C84.5052 22.4297 84.6328 22.3477 84.7422 22.2383C85.1159 22.1198 85.4303 21.9512 85.6855 21.7324C85.9499 21.5137 86.237 21.2812 86.5469 21.0352C86.8021 20.8893 87.0163 20.7617 87.1895 20.6523C87.3626 20.543 87.5495 20.4062 87.75 20.2422C87.7956 20.1419 87.8457 20.0736 87.9004 20.0371C87.946 20.0098 87.9961 19.9505 88.0508 19.8594C88.3789 19.8594 88.5612 19.987 88.5977 20.2422C88.5065 20.4427 88.3835 20.6068 88.2285 20.7344C88.0645 20.8711 87.9232 21.0169 87.8047 21.1719C87.6589 21.263 87.5404 21.3451 87.4492 21.418C87.3581 21.4909 87.2669 21.6003 87.1758 21.7461C87.1667 21.7461 87.112 21.7871 87.0117 21.8691C86.9206 21.9512 86.8659 21.9922 86.8477 21.9922C86.7018 22.1654 86.5924 22.2702 86.5195 22.3066C86.4466 22.3431 86.319 22.4388 86.1367 22.5938C86.0182 22.7943 85.8542 22.9583 85.6445 23.0859C85.2526 23.4596 84.8379 23.7741 84.4004 24.0293C84.1725 24.1569 83.9583 24.2891 83.7578 24.4258C83.5573 24.5534 83.3659 24.681 83.1836 24.8086C83.0924 24.8633 83.0286 24.9134 82.9922 24.959C82.9557 25.0046 82.8919 25.0638 82.8008 25.1367C82.7096 25.2096 82.5684 25.2826 82.377 25.3555C82.1855 25.4284 82.0169 25.4922 81.8711 25.5469C81.7526 25.6198 81.6523 25.6745 81.5703 25.7109C81.1602 25.7292 80.8503 25.6654 80.6406 25.5195C80.4036 25.3919 80.2214 25.2917 80.0938 25.2188C79.9661 25.1458 79.8568 25.0273 79.7656 24.8633C79.556 24.763 79.4329 24.5944 79.3965 24.3574C79.3783 24.2298 79.3555 24.1068 79.3281 23.9883C79.3008 23.8698 79.2734 23.7513 79.2461 23.6328C79.2279 23.5417 79.2096 23.4368 79.1914 23.3184C79.1732 23.1999 79.1732 23.0768 79.1914 22.9492C79.237 22.7396 79.2643 22.5254 79.2734 22.3066C79.2826 22.1061 79.3281 21.9102 79.4102 21.7188C79.4922 21.5365 79.5423 21.3359 79.5605 21.1172C79.5788 20.8984 79.6289 20.6979 79.7109 20.5156C79.8294 20.3333 79.8796 20.2331 79.8613 20.2148C79.8522 20.2057 79.8568 20.1784 79.875 20.1328L79.998 19.9688C80.0254 19.9323 80.0664 19.8685 80.1211 19.7773L80.2852 19.3672C80.3672 19.2122 80.4492 19.0846 80.5312 18.9844C80.6133 18.875 80.6862 18.7201 80.75 18.5195C80.7956 18.3919 80.8457 18.2917 80.9004 18.2188C80.9368 18.1732 80.9688 18.1276 80.9961 18.082C81.0326 18.0273 81.069 17.9727 81.1055 17.918C81.151 17.8268 81.1966 17.7129 81.2422 17.5762C81.2604 17.5124 81.2786 17.4531 81.2969 17.3984C81.3242 17.3346 81.3516 17.2708 81.3789 17.207C81.4336 17.0612 81.502 16.9154 81.584 16.7695C81.666 16.6237 81.7526 16.4779 81.8438 16.332C81.9167 16.1862 81.9805 16.0768 82.0352 16.0039C82.0898 15.931 82.1992 15.8854 82.3633 15.8672C82.4453 15.849 82.5273 15.8535 82.6094 15.8809C82.7096 15.9082 82.8008 15.9036 82.8828 15.8672C83.1198 15.7578 83.2839 15.7031 83.375 15.7031C83.4661 15.7031 83.5299 15.6758 83.5664 15.6211C83.7578 15.6302 83.9036 15.694 84.0039 15.8125C84.1042 15.9219 84.2135 16.0312 84.332 16.1406C84.2227 16.6693 84.0996 17.0749 83.9629 17.3574C83.8262 17.64 83.6758 17.9362 83.5117 18.2461C83.4206 18.3919 83.3294 18.556 83.2383 18.7383C83.1471 18.9206 83.0651 19.0846 82.9922 19.2305C82.901 19.431 82.8053 19.6087 82.7051 19.7637C82.5866 19.946 82.5 20.1237 82.4453 20.2969L82.3223 20.5566C82.2676 20.666 82.2266 20.7526 82.1992 20.8164C82.181 20.8802 82.1582 20.944 82.1309 21.0078C82.1126 21.0625 82.0853 21.1126 82.0488 21.1582C82.0124 21.2038 81.9805 21.2539 81.9531 21.3086C81.9258 21.3542 81.8984 21.3997 81.8711 21.4453C81.8164 21.5547 81.7617 21.6641 81.707 21.7734C81.6523 21.8828 81.6068 22.0013 81.5703 22.1289C81.4792 22.3294 81.4245 22.4616 81.4062 22.5254C81.3971 22.5436 81.388 22.5664 81.3789 22.5938C81.3698 22.612 81.3607 22.6302 81.3516 22.6484C81.3151 22.849 81.2604 23.013 81.1875 23.1406C81.1146 23.2682 81.1419 23.3594 81.2695 23.4141ZM94.1758 19.3945C94.2487 20.069 94.2487 20.666 94.1758 21.1855C94.1029 21.7051 93.957 22.2292 93.7383 22.7578C93.4831 23.1589 93.1823 23.5234 92.8359 23.8516C92.7812 23.9062 92.7266 23.9655 92.6719 24.0293C92.6263 24.084 92.5807 24.1432 92.5352 24.207C92.444 24.3255 92.3346 24.4349 92.207 24.5352C92.1159 24.6081 91.9792 24.6855 91.7969 24.7676C91.6602 24.8314 91.5417 24.9271 91.4414 25.0547C91.3685 25.0729 91.3001 25.0957 91.2363 25.123C91.1725 25.1504 91.1042 25.1823 91.0312 25.2188C90.849 25.2643 90.7168 25.3053 90.6348 25.3418L90.375 25.4648C90.293 25.5013 90.2109 25.5104 90.1289 25.4922C90.0651 25.474 89.9831 25.474 89.8828 25.4922C89.8008 25.5013 89.7233 25.5378 89.6504 25.6016C89.5866 25.6562 89.5091 25.7018 89.418 25.7383C89.2357 25.793 89.0716 25.7839 88.9258 25.7109C88.7799 25.638 88.6523 25.5378 88.543 25.4102C88.1966 25.2826 87.9642 25.1276 87.8457 24.9453C87.7272 24.763 87.6042 24.5716 87.4766 24.3711C87.2943 24.1888 87.1803 24.002 87.1348 23.8105C87.0892 23.6191 87.0482 23.4049 87.0117 23.168C86.9661 22.8854 86.9251 22.6029 86.8887 22.3203C86.8522 22.0378 86.8203 21.7552 86.793 21.4727C86.7747 21.3086 86.7747 21.1354 86.793 20.9531C86.8112 20.7708 86.8112 20.5885 86.793 20.4062C86.7747 20.151 86.7611 19.8685 86.752 19.5586C86.7428 19.2487 86.7656 18.9844 86.8203 18.7656C86.8659 18.5742 86.9115 18.4193 86.957 18.3008C87.0026 18.1732 87.0482 18.0273 87.0938 17.8633C87.1667 17.6354 87.2214 17.4486 87.2578 17.3027C87.2943 17.1387 87.349 16.9701 87.4219 16.7969C87.4401 16.7513 87.4583 16.7103 87.4766 16.6738C87.4948 16.6283 87.513 16.5872 87.5312 16.5508C87.5495 16.5143 87.5677 16.4779 87.5859 16.4414C87.6042 16.4049 87.6224 16.3685 87.6406 16.332C87.668 16.2682 87.6999 16.1816 87.7363 16.0723C87.7728 15.9629 87.8047 15.8763 87.832 15.8125C87.8685 15.6667 87.9277 15.5208 88.0098 15.375C88.0827 15.2383 88.1419 15.0833 88.1875 14.9102C88.224 14.7826 88.2559 14.6732 88.2832 14.582C88.3105 14.4909 88.3789 14.3997 88.4883 14.3086L88.6934 13.7617C88.7298 13.6706 88.7663 13.5794 88.8027 13.4883C88.8392 13.3971 88.8802 13.306 88.9258 13.2148C88.9714 13.1237 89.0124 13.0326 89.0488 12.9414C89.0853 12.8503 89.1217 12.7591 89.1582 12.668C89.1947 12.5768 89.2311 12.4857 89.2676 12.3945C89.304 12.3034 89.3451 12.2122 89.3906 12.1211C89.5547 11.8932 89.6504 11.752 89.6777 11.6973L89.7734 11.4648C89.8281 11.3919 89.8737 11.3281 89.9102 11.2734C89.9466 11.2188 89.974 11.1732 89.9922 11.1367L90.6484 10.0293C90.7578 9.84701 90.8717 9.66471 90.9902 9.48242C91.1087 9.30013 91.2318 9.1224 91.3594 8.94922C91.5234 8.72135 91.6875 8.49805 91.8516 8.2793C92.0156 8.05143 92.1751 7.82357 92.3301 7.5957C92.6217 7.17643 92.9909 6.74349 93.4375 6.29688C93.5013 6.1875 93.5924 6.06901 93.7109 5.94141C93.8203 5.8138 93.9297 5.67708 94.0391 5.53125C94.1029 5.46745 94.1621 5.40365 94.2168 5.33984C94.2806 5.27604 94.3398 5.21224 94.3945 5.14844C94.4948 5.03906 94.6133 4.92969 94.75 4.82031C94.8685 4.72005 94.9688 4.63346 95.0508 4.56055C95.1419 4.48763 95.2103 4.42839 95.2559 4.38281C95.3561 4.28255 95.5065 4.22786 95.707 4.21875C96.0716 4.20052 96.3724 4.29622 96.6094 4.50586C96.8464 4.71549 97.0195 4.97526 97.1289 5.28516C97.0924 5.60417 97.1016 5.91406 97.1562 6.21484C97.2109 6.51562 97.1927 6.79818 97.1016 7.0625C96.9375 7.3724 96.778 7.69141 96.623 8.01953C96.4681 8.34766 96.3177 8.67578 96.1719 9.00391C96.026 9.34115 95.862 9.65104 95.6797 9.93359C95.5977 10.0612 95.5156 10.1934 95.4336 10.3301C95.3607 10.4668 95.2878 10.6081 95.2148 10.7539C95.1055 10.9544 94.9824 11.1458 94.8457 11.3281C94.7272 11.4831 94.6133 11.6927 94.5039 11.957C94.4128 12.0482 94.3398 12.153 94.2852 12.2715C94.2396 12.3717 94.1484 12.4766 94.0117 12.5859C93.8385 12.9688 93.5924 13.306 93.2734 13.5977L92.6445 14.8281C92.5443 15.0286 92.4349 15.2246 92.3164 15.416C92.207 15.6074 92.0885 15.7943 91.9609 15.9766C91.8698 15.9948 91.7969 16.0404 91.7422 16.1133C91.6875 16.1862 91.6328 16.2682 91.5781 16.3594C91.4323 16.5417 91.2865 16.7194 91.1406 16.8926C90.9948 17.0658 90.8307 17.2344 90.6484 17.3984C90.6029 17.5443 90.498 17.6901 90.334 17.8359C90.1608 18 90.0469 18.1276 89.9922 18.2188C89.9648 18.2552 89.9329 18.3099 89.8965 18.3828C89.86 18.4557 89.8281 18.5104 89.8008 18.5469C89.7461 18.638 89.696 18.7018 89.6504 18.7383C89.6048 18.7747 89.5547 18.8294 89.5 18.9023C89.4453 19.0482 89.3997 19.1348 89.3633 19.1621C89.3359 19.1803 89.2995 19.2122 89.2539 19.2578C89.1445 19.4219 89.0807 19.5039 89.0625 19.5039C89.0443 19.5039 89.026 19.513 89.0078 19.5312C88.8984 19.7409 88.8255 19.8503 88.7891 19.8594C88.7526 19.8685 88.7253 19.8958 88.707 19.9414C88.7161 20.1966 88.7161 20.3698 88.707 20.4609C88.6979 20.5065 88.6888 20.5521 88.6797 20.5977C88.6706 20.6432 88.6615 20.6888 88.6523 20.7344C88.6979 20.8984 88.7116 21.0853 88.6934 21.2949C88.6842 21.3952 88.6797 21.5 88.6797 21.6094C88.6888 21.7096 88.6979 21.8099 88.707 21.9102C88.7253 22.1107 88.748 22.2975 88.7754 22.4707C88.8027 22.6439 88.8438 22.8034 88.8984 22.9492C88.9531 23.1133 89.0534 23.2546 89.1992 23.373C89.3451 23.4915 89.5182 23.5417 89.7188 23.5234C89.7917 23.5052 89.8919 23.4688 90.0195 23.4141C90.1471 23.3594 90.2474 23.3138 90.3203 23.2773C90.3659 23.2409 90.4115 23.1999 90.457 23.1543C90.5026 23.1087 90.5482 23.0586 90.5938 23.0039C90.6393 22.9492 90.6849 22.8991 90.7305 22.8535C90.776 22.7988 90.8216 22.7487 90.8672 22.7031C91.0677 22.4479 91.2865 22.138 91.5234 21.7734L92.1523 20.7891C92.1979 20.6432 92.2389 20.5202 92.2754 20.4199C92.3118 20.3197 92.3438 20.2422 92.3711 20.1875C92.4167 20.0964 92.4622 19.9688 92.5078 19.8047C92.5534 19.5951 92.5671 19.4036 92.5488 19.2305C92.5397 19.0664 92.5716 18.9023 92.6445 18.7383C92.681 18.6289 92.7676 18.4876 92.9043 18.3145C93.041 18.1413 93.1549 18.0091 93.2461 17.918C93.4102 17.7721 93.5104 17.7038 93.5469 17.7129C93.5742 17.722 93.6107 17.7174 93.6562 17.6992C93.957 17.6628 94.1576 17.6719 94.2578 17.7266C94.3581 17.7812 94.5039 17.8086 94.6953 17.8086C94.75 17.7995 94.8047 17.7904 94.8594 17.7812C94.9141 17.763 94.9733 17.7493 95.0371 17.7402C95.1465 17.7129 95.2695 17.7083 95.4062 17.7266C95.5521 17.7448 95.6888 17.7585 95.8164 17.7676C95.944 17.7767 96.0807 17.763 96.2266 17.7266C96.4635 17.6719 96.7552 17.6445 97.1016 17.6445C97.1562 17.6445 97.2155 17.6445 97.2793 17.6445C97.3431 17.6445 97.4069 17.6491 97.4707 17.6582C97.6074 17.6673 97.7487 17.6536 97.8945 17.6172C98.0586 17.599 98.2227 17.5579 98.3867 17.4941C98.5508 17.4303 98.7057 17.4167 98.8516 17.4531C98.9792 17.4714 99.0749 17.5443 99.1387 17.6719C99.2025 17.7995 99.2253 17.9362 99.207 18.082C99.1888 18.1732 99.1432 18.2871 99.0703 18.4238C98.9974 18.5605 98.9245 18.638 98.8516 18.6562C98.7057 18.6198 98.6237 18.6107 98.6055 18.6289C98.5872 18.6471 98.5599 18.6562 98.5234 18.6562C98.4141 18.6471 98.3001 18.6152 98.1816 18.5605L97.8672 18.4375C97.612 18.401 97.3613 18.4102 97.1152 18.4648C96.8691 18.5195 96.6276 18.5833 96.3906 18.6562L96.0488 18.7793C95.985 18.7975 95.9212 18.8203 95.8574 18.8477C95.8027 18.8659 95.7435 18.8841 95.6797 18.9023C95.6068 18.9206 95.5475 18.9297 95.502 18.9297C95.429 18.9297 95.3698 18.9479 95.3242 18.9844C95.2057 19.0208 95.0918 19.0482 94.9824 19.0664C94.8822 19.0846 94.7773 19.112 94.668 19.1484C94.5221 19.1849 94.4401 19.2259 94.4219 19.2715C94.4128 19.3079 94.3307 19.349 94.1758 19.3945ZM92.7266 10.125C92.3073 10.763 91.9017 11.4147 91.5098 12.0801C91.1178 12.7454 90.7305 13.4427 90.3477 14.1719C90.293 14.2812 90.2428 14.3952 90.1973 14.5137C90.1517 14.6322 90.1016 14.7643 90.0469 14.9102C89.9557 15.0195 89.8783 15.1699 89.8145 15.3613C89.7507 15.5527 89.6914 15.7305 89.6367 15.8945C89.5911 16.013 89.5456 16.1315 89.5 16.25C89.4544 16.3594 89.4089 16.4733 89.3633 16.5918C89.2721 16.8197 89.2448 17.0339 89.2812 17.2344C89.4909 17.0885 89.6732 16.8835 89.8281 16.6191L90.2656 15.8398C90.375 15.7305 90.457 15.6257 90.5117 15.5254C90.5755 15.416 90.6576 15.3021 90.7578 15.1836C90.8581 15.0742 90.9401 14.9648 91.0039 14.8555C91.0677 14.7552 91.1497 14.6549 91.25 14.5547C91.5052 14.1901 91.7285 13.7982 91.9199 13.3789C92.0202 13.1693 92.1204 12.9596 92.2207 12.75C92.3301 12.5404 92.444 12.3307 92.5625 12.1211C92.6628 11.9297 92.7767 11.7292 92.9043 11.5195C93.0046 11.3464 93.1094 11.1458 93.2188 10.918L93.5059 10.2344C93.5514 10.125 93.597 10.0156 93.6426 9.90625C93.6882 9.78776 93.7292 9.66927 93.7656 9.55078C93.8203 9.26823 93.8887 9.08138 93.9707 8.99023C94.0618 8.88997 94.112 8.76693 94.1211 8.62109C93.8568 8.83073 93.6107 9.07227 93.3828 9.3457L92.7266 10.125ZM105.305 17.3984L105.277 17.6172C105.296 17.681 105.277 17.7904 105.223 17.9453C105.132 18.0547 105.077 18.1732 105.059 18.3008C105.022 18.3737 104.99 18.4375 104.963 18.4922C104.936 18.5469 104.913 18.6198 104.895 18.7109C104.858 18.8203 104.844 18.9479 104.854 19.0938C104.863 19.1667 104.863 19.2396 104.854 19.3125C104.854 19.3763 104.849 19.4401 104.84 19.5039C104.803 19.7044 104.776 19.9004 104.758 20.0918C104.74 20.2832 104.721 20.4792 104.703 20.6797C104.703 20.8802 104.685 21.1081 104.648 21.3633C104.612 21.6185 104.576 21.8464 104.539 22.0469C104.621 22.1927 104.667 22.3294 104.676 22.457C104.685 22.5938 104.749 22.7122 104.867 22.8125C105.232 22.7578 105.523 22.6712 105.742 22.5527C105.961 22.4342 106.171 22.2656 106.371 22.0469C106.517 21.9831 106.631 21.9193 106.713 21.8555C106.786 21.7917 106.891 21.7188 107.027 21.6367L107.246 21.418C107.465 21.2995 107.588 21.2266 107.615 21.1992C107.633 21.181 107.656 21.1628 107.684 21.1445C107.72 21.1263 107.757 21.1081 107.793 21.0898C108.103 20.8893 108.34 20.6797 108.504 20.4609C108.641 20.3516 108.755 20.2376 108.846 20.1191C108.919 20.0189 109.06 19.9232 109.27 19.832C109.388 19.6862 109.52 19.5632 109.666 19.4629C109.812 19.3626 109.944 19.2396 110.062 19.0938C110.163 19.0938 110.236 19.112 110.281 19.1484C110.309 19.1667 110.336 19.1849 110.363 19.2031C110.4 19.2214 110.436 19.2396 110.473 19.2578C110.527 19.4036 110.536 19.554 110.5 19.709C110.464 19.8639 110.4 20.0052 110.309 20.1328C110.217 20.2513 110.172 20.3242 110.172 20.3516C110.172 20.3698 110.163 20.388 110.145 20.4062C110.09 20.4701 110.021 20.5384 109.939 20.6113C109.857 20.6751 109.789 20.7435 109.734 20.8164C109.643 20.9805 109.57 21.0625 109.516 21.0625C109.461 21.0625 109.415 21.0807 109.379 21.1172C109.215 21.2174 109.101 21.2904 109.037 21.3359C108.964 21.3997 108.859 21.4727 108.723 21.5547C108.531 21.6549 108.413 21.7279 108.367 21.7734C108.322 21.819 108.285 21.8464 108.258 21.8555C108.039 22.1016 107.825 22.3066 107.615 22.4707C107.424 22.6165 107.219 22.8216 107 23.0859C106.927 23.1406 106.854 23.1953 106.781 23.25C106.708 23.3047 106.645 23.3776 106.59 23.4688C106.426 23.5781 106.294 23.6875 106.193 23.7969C106.093 23.9062 105.979 24.0339 105.852 24.1797C105.742 24.2344 105.624 24.3118 105.496 24.4121C105.341 24.5306 105.204 24.6172 105.086 24.6719C105.04 24.6992 104.963 24.7402 104.854 24.7949C104.762 24.8405 104.676 24.8633 104.594 24.8633C104.384 24.8997 104.184 24.8815 103.992 24.8086C103.819 24.7448 103.646 24.6901 103.473 24.6445C103.4 24.5352 103.309 24.444 103.199 24.3711C103.035 24.1706 102.917 23.9336 102.844 23.6602C102.771 23.3867 102.698 23.0951 102.625 22.7852C102.461 22.8945 102.324 23.013 102.215 23.1406C102.105 23.2773 101.941 23.3958 101.723 23.4961C101.54 23.6693 101.354 23.8424 101.162 24.0156C100.971 24.1797 100.77 24.3392 100.561 24.4941C100.36 24.6491 100.155 24.8132 99.9453 24.9863C99.7357 25.1504 99.526 25.319 99.3164 25.4922C99.1706 25.638 99.0703 25.6927 99.0156 25.6562C98.8516 25.8568 98.5599 25.9206 98.1406 25.8477C97.9948 25.7747 97.8307 25.7109 97.6484 25.6562C97.5208 25.6198 97.375 25.5651 97.2109 25.4922C96.901 25.4375 96.6413 25.3008 96.4316 25.082C96.222 24.8633 96.0443 24.6081 95.8984 24.3164C95.8438 24.1615 95.8027 24.0247 95.7754 23.9062C95.7663 23.8424 95.7526 23.7741 95.7344 23.7012C95.7161 23.6283 95.6979 23.5508 95.6797 23.4688C95.6706 23.3138 95.6432 23.1908 95.5977 23.0996C95.5612 22.9993 95.5612 22.9036 95.5977 22.8125C95.5612 22.7669 95.5521 22.7077 95.5703 22.6348C95.5885 22.5436 95.5977 22.4753 95.5977 22.4297C95.5794 22.1745 95.6022 21.901 95.666 21.6094C95.7298 21.3177 95.8164 21.0534 95.9258 20.8164C95.9805 20.7253 96.0534 20.6341 96.1445 20.543C96.1901 20.4883 96.2174 20.4336 96.2266 20.3789C96.2357 20.3333 96.263 20.2878 96.3086 20.2422C96.3542 20.1875 96.4089 20.1328 96.4727 20.0781C96.5638 20.0052 96.6276 19.9505 96.6641 19.9141C96.7096 19.8503 96.7552 19.791 96.8008 19.7363C96.8555 19.6725 96.9147 19.6178 96.9785 19.5723C97.0423 19.5267 97.1016 19.4766 97.1562 19.4219C97.2109 19.3672 97.2656 19.3125 97.3203 19.2578C97.3841 19.194 97.4342 19.1302 97.4707 19.0664C97.5163 18.9935 97.5846 18.9388 97.6758 18.9023C97.7487 18.7747 97.8307 18.6699 97.9219 18.5879C98.013 18.5059 98.1133 18.4193 98.2227 18.3281C98.5326 17.9544 98.9154 17.6354 99.3711 17.3711C99.8359 17.1068 100.246 16.8151 100.602 16.4961C100.729 16.4414 100.839 16.3776 100.93 16.3047C101.021 16.2318 101.112 16.1589 101.203 16.0859C101.431 15.8854 101.677 15.8216 101.941 15.8945L102.652 16.0859C102.835 16.25 103.012 16.4141 103.186 16.5781C103.359 16.7422 103.509 16.9245 103.637 17.125C103.701 17.1159 103.769 17.1113 103.842 17.1113C103.915 17.1022 103.992 17.1022 104.074 17.1113C104.238 17.1296 104.411 17.1159 104.594 17.0703C104.648 17.0703 104.703 17.0566 104.758 17.0293C104.812 17.002 104.858 16.9883 104.895 16.9883C105.168 17.0794 105.305 17.2161 105.305 17.3984ZM101.695 17.8086C101.203 18.0456 100.757 18.3236 100.355 18.6426C99.9544 18.9616 99.5716 19.3034 99.207 19.668C99.1615 19.7135 99.1113 19.7591 99.0566 19.8047C99.0111 19.8411 98.9655 19.8822 98.9199 19.9277C98.8743 19.9642 98.8288 20.0052 98.7832 20.0508C98.7376 20.0964 98.6966 20.1419 98.6602 20.1875C98.5872 20.2786 98.5189 20.388 98.4551 20.5156C98.3913 20.6432 98.332 20.7617 98.2773 20.8711C98.2591 20.9076 98.2409 20.944 98.2227 20.9805C98.2044 21.0078 98.1862 21.0306 98.168 21.0488C98.1497 21.0671 98.1315 21.0898 98.1133 21.1172C98.0951 21.1445 98.0768 21.1719 98.0586 21.1992C98.0221 21.2904 98.0085 21.3815 98.0176 21.4727C98.0267 21.5365 98.0312 21.6367 98.0312 21.7734V22.0469C98.0312 22.1016 98.0404 22.1927 98.0586 22.3203C98.1133 22.5208 98.1406 22.7214 98.1406 22.9219C98.1406 23.0677 98.1543 23.2454 98.1816 23.4551C98.209 23.6647 98.2773 23.806 98.3867 23.8789C98.5052 23.9518 98.6191 23.9701 98.7285 23.9336C98.8561 23.888 98.9609 23.8607 99.043 23.8516C99.681 23.3594 100.283 22.8444 100.848 22.3066C101.413 21.7689 101.914 21.1628 102.352 20.4883C102.315 20.0417 102.311 19.5814 102.338 19.1074C102.365 18.6608 102.324 18.2461 102.215 17.8633C102.142 17.8177 102.055 17.804 101.955 17.8223C101.882 17.8314 101.796 17.8268 101.695 17.8086Z" fill="#0B1717"/>
</svg>
